<mxfile host="app.diagrams.net">
  <diagram name="DFD Level 1" id="DFD1">
    <mxGraphModel dx="1132" dy="652" grid="1" gridSize="10" guides="1" tooltips="1" connect="1" arrows="1" fold="1" page="1" pageScale="1" pageWidth="827" pageHeight="1169" math="0" shadow="0">
      <root>
        <mxCell id="0" />
        <mxCell id="1" parent="0" />

        <!-- External Entities -->
        <mxCell id="cust" value="Khách hàng" style="shape=rectangle;whiteSpace=wrap;html=1;fillColor=#FFF2CC;" vertex="1" parent="1">
          <mxGeometry x="20" y="200" width="120" height="50" as="geometry" />
        </mxCell>
        <mxCell id="admin" value="Admin/Nhân viên" style="shape=rectangle;whiteSpace=wrap;html=1;fillColor=#FFF2CC;" vertex="1" parent="1">
          <mxGeometry x="600" y="200" width="140" height="50" as="geometry" />
        </mxCell>

        <!-- Processes -->
        <mxCell id="p1" value="1.1 Quản lý Tài khoản" style="shape=ellipse;whiteSpace=wrap;html=1;fillColor=#DAE8FC;" vertex="1" parent="1">
          <mxGeometry x="300" y="50" width="160" height="60" as="geometry" />
        </mxCell>
        <mxCell id="p2" value="1.2 Xử lý Đơn hàng" style="shape=ellipse;whiteSpace=wrap;html=1;fillColor=#DAE8FC;" vertex="1" parent="1">
          <mxGeometry x="300" y="150" width="160" height="60" as="geometry" />
        </mxCell>
        <mxCell id="p3" value="1.3 Gợi ý Sản phẩm" style="shape=ellipse;whiteSpace=wrap;html=1;fillColor=#DAE8FC;" vertex="1" parent="1">
          <mxGeometry x="300" y="250" width="160" height="60" as="geometry" />
        </mxCell>
        <mxCell id="p4" value="1.4 Báo cáo - Thống kê" style="shape=ellipse;whiteSpace=wrap;html=1;fillColor=#DAE8FC;" vertex="1" parent="1">
          <mxGeometry x="300" y="350" width="160" height="60" as="geometry" />
        </mxCell>

        <!-- Data Stores -->
        <mxCell id="d1" value="D1: Tài khoản" style="shape=datastore;whiteSpace=wrap;html=1;fillColor=#D5E8D4;" vertex="1" parent="1">
          <mxGeometry x="500" y="50" width="120" height="50" as="geometry" />
        </mxCell>
        <mxCell id="d2" value="D2: Đơn hàng" style="shape=datastore;whiteSpace=wrap;html=1;fillColor=#D5E8D4;" vertex="1" parent="1">
          <mxGeometry x="500" y="150" width="120" height="50" as="geometry" />
        </mxCell>
        <mxCell id="d3" value="D3: Sản phẩm" style="shape=datastore;whiteSpace=wrap;html=1;fillColor=#D5E8D4;" vertex="1" parent="1">
          <mxGeometry x="500" y="250" width="120" height="50" as="geometry" />
        </mxCell>
        <mxCell id="d4" value="D4: Gợi ý" style="shape=datastore;whiteSpace=wrap;html=1;fillColor=#D5E8D4;" vertex="1" parent="1">
          <mxGeometry x="500" y="350" width="120" height="50" as="geometry" />
        </mxCell>

        <!-- Flows -->
        <mxCell id="f1" edge="1" source="cust" target="p1" style="endArrow=block;">
          <mxGeometry relative="1" as="geometry" />
        </mxCell>
        <mxCell id="f2" edge="1" source="p1" target="d1" style="endArrow=block;">
          <mxGeometry relative="1" as="geometry" />
        </mxCell>
        <mxCell id="f3" edge="1" source="cust" target="p2" style="endArrow=block;">
          <mxGeometry relative="1" as="geometry" />
        </mxCell>
        <mxCell id="f4" edge="1" source="p2" target="d2" style="endArrow=block;">
          <mxGeometry relative="1" as="geometry" />
        </mxCell>
        <mxCell id="f5" edge="1" source="p2" target="d3" style="endArrow=block;">
          <mxGeometry relative="1" as="geometry" />
        </mxCell>
        <mxCell id="f6" edge="1" source="cust" target="p3" style="endArrow=block;">
          <mxGeometry relative="1" as="geometry" />
        </mxCell>
        <mxCell id="f7" edge="1" source="p3" target="d1" style="endArrow=block;">
          <mxGeometry relative="1" as="geometry" />
        </mxCell>
        <mxCell id="f8" edge="1" source="p3" target="d3" style="endArrow=block;">
          <mxGeometry relative="1" as="geometry" />
        </mxCell>
        <mxCell id="f9" edge="1" source="p3" target="d4" style="endArrow=block;">
          <mxGeometry relative="1" as="geometry" />
        </mxCell>
        <mxCell id="f10" edge="1" source="admin" target="p4" style="endArrow=block;">
          <mxGeometry relative="1" as="geometry" />
        </mxCell>
        <mxCell id="f11" edge="1" source="p4" target="d2" style="endArrow=block;">
          <mxGeometry relative="1" as="geometry" />
        </mxCell>
        <mxCell id="f12" edge="1" source="p4" target="d3" style="endArrow=block;">
          <mxGeometry relative="1" as="geometry" />
        </mxCell>
        <mxCell id="f13" edge="1" source="p4" target="d4" style="endArrow=block;">
          <mxGeometry relative="1" as="geometry" />
        </mxCell>
      </root>
    </mxGraphModel>
  </diagram>
</mxfile>
